# xmcd
#
# Track frame offsets:
#	150
#	10202
#	23148
#	34623
#	44655
#	54627
#	64538
#	74649
#	85470
#	96928
#	106576
#	121321
#	132299
#	143289
#	153597
#	163942
#	174255
#	186276
#	196612
#	209002
#	218787
#	233194
#	244973
#	255409
#	268314
#	278179
#
# Disc length: 3860 seconds
#
# Revision: 1
# Processed by: cddbd v1.5.2PL0 Copyright (c) Steve Scherf et al.
# Submitted via: audiograbber 1.83.01
#
DISCID=7b0f121a
DTITLE=Barbara Mandrell - Radio Columbiam Singels 1969-75
DYEAR=2002
DGENRE=Oldies
TTITLE0=I've Been Loving You Too Long
TTITLE1=Baby Come Home
TTITLE2=Playin' Around With Love
TTITLE3=After Closing Time 
TTITLE4=Do Right Women - Do  Right Man
TTITLE5=The Letter
TTITLE6=Treat Him Right
TTITLE7=Break My Mind
TTITLE8=We"Ve Got Everything But Love
TTITLE9=Tonght My Baby's Coming Home
TTITLE10=He'll Never Take The Place Of You
TTITLE11=Show Me
TTITLE12=Satisfied
TTITLE13=A Perfect Match
TTITLE14=Holdin' On
TTITLE15=Smile Somebody Loves You
TTITLE16=Give A Little, Take A Little 
TTITLE17=Ain'l Ll Good
TTITLE18=The Midnight Oil
TTITLE19=In The Name Of Love
TTITLE20=I Love You,i Love You
TTITLE21=Lovin' You Is Worth It
TTITLE22=This Time I Almost Made It
TTITLE23=Ten Commandments Of Love
TTITLE24=Wonder When My Baby's Coming Home
TTITLE25=Kiss The Hurt Away
EXTD=
EXTT0=
EXTT1=
EXTT2=
EXTT3=
EXTT4=
EXTT5=
EXTT6=
EXTT7=
EXTT8=
EXTT9=
EXTT10=
EXTT11=
EXTT12=
EXTT13=
EXTT14=
EXTT15=
EXTT16=
EXTT17=
EXTT18=
EXTT19=
EXTT20=
EXTT21=
EXTT22=
EXTT23=
EXTT24=
EXTT25=
PLAYORDER=
